<?xml version="1.0" standalone="no"?>
<!DOCTYPE svg PUBLIC "-//W3C//DTD SVG 20010904//EN"
 "http://www.w3.org/TR/2001/REC-SVG-20010904/DTD/svg10.dtd">
<svg version="1.0" xmlns="http://www.w3.org/2000/svg"
 width="1024.000000pt" height="1024.000000pt" viewBox="0 0 1024.000000 1024.000000"
 preserveAspectRatio="xMidYMid meet">

<g transform="translate(0.000000,1024.000000) scale(0.100000,-0.100000)"
fill="#000000" stroke="none">
<path d="M6399 9450 c-38 -11 -127 -57 -158 -81 -14 -11 -75 -68 -135 -127
-239 -233 -475 -574 -664 -960 l-86 -174 -30 6 c-17 3 -71 13 -121 22 -122 23
-326 23 -429 0 -94 -21 -252 -72 -283 -92 -12 -8 -27 -14 -32 -14 -5 0 -25 29
-45 65 -49 90 -170 272 -259 391 -257 345 -586 662 -842 812 -214 125 -409 81
-512 -115 -44 -83 -107 -286 -137 -440 -78 -399 -98 -612 -92 -989 2 -154 7
-297 10 -319 4 -22 13 -83 21 -135 46 -305 133 -553 266 -755 71 -109 132
-188 196 -251 l52 -53 -39 -65 c-58 -95 -81 -173 -79 -262 2 -68 0 -75 -27
-106 -68 -78 -123 -189 -139 -281 -5 -31 -10 -37 -23 -32 -256 99 -577 13
-740 -197 -100 -131 -148 -277 -139 -428 10 -151 42 -240 130 -358 l25 -34
-25 -50 c-32 -64 -53 -140 -53 -195 0 -23 -3 -44 -7 -46 -5 -3 -35 -8 -68 -12
-66 -7 -183 -43 -247 -76 -56 -29 -134 -103 -175 -167 -43 -67 -68 -172 -173
-722 -22 -118 -58 -303 -80 -410 -33 -163 -115 -584 -125 -639 -1 -9 -8 -47
-15 -84 -15 -82 -8 -142 24 -213 57 -125 142 -187 286 -209 41 -6 124 9 313
59 76 20 140 36 143 36 2 0 4 -9 4 -20 0 -33 38 -131 66 -172 34 -48 109 -104
172 -128 90 -34 135 -33 302 4 36 8 166 38 290 66 244 55 332 74 485 99 39 6
93 16 120 21 74 14 353 57 480 75 277 37 637 69 1080 96 215 13 1260 6 1510
-10 215 -14 314 -21 360 -26 22 -3 92 -9 155 -15 213 -18 324 -31 535 -61 211
-30 272 -40 485 -80 150 -27 253 -23 325 15 116 61 194 178 203 306 4 62 7 71
26 75 199 39 343 96 462 180 372 266 546 818 398 1264 -31 93 -108 248 -164
332 -54 80 -204 230 -290 291 -133 94 -320 178 -498 224 -33 9 -34 10 -38 74
-6 86 -27 158 -75 256 l-40 81 32 51 c42 68 69 166 76 279 7 113 -11 200 -68
322 -33 71 -54 99 -127 171 -68 67 -105 95 -172 128 -105 51 -167 65 -295 66
-85 0 -113 -4 -184 -29 -45 -15 -110 -46 -143 -67 -33 -22 -61 -38 -62 -36 -1
2 -10 30 -20 63 -25 82 -56 141 -116 219 -48 62 -50 68 -50 128 0 123 -53 263
-137 366 l-35 43 50 53 c161 170 279 438 317 719 26 195 17 570 -19 762 -49
265 -67 338 -141 566 -170 522 -373 876 -540 938 -57 22 -155 27 -206 11z
m120 -275 c51 -26 100 -96 181 -259 130 -263 231 -557 295 -854 38 -182 42
-203 50 -297 3 -38 8 -90 10 -115 3 -25 1 -52 -5 -60 -8 -12 -10 -11 -8 5 3
24 -21 135 -29 135 -3 0 -2 -11 1 -24 4 -18 1 -25 -14 -29 -14 -4 -20 0 -21
11 -1 15 -2 15 -6 -1 -2 -9 -8 -15 -13 -12 -5 3 -12 1 -15 -5 -4 -6 -1 -9 7
-8 7 2 12 -3 10 -11 -3 -12 0 -12 12 -2 10 8 16 9 21 1 3 -5 -1 -10 -10 -10
-9 0 -13 -5 -10 -10 4 -6 11 -8 16 -5 5 4 9 1 9 -5 0 -6 4 -9 10 -5 5 3 6 13
3 23 -5 14 -3 15 7 5 10 -9 10 -15 2 -26 -7 -8 -11 -16 -9 -18 1 -2 -2 -1 -7
3 -15 12 -28 9 -20 -4 5 -9 3 -9 -9 1 -9 7 -15 17 -12 21 3 4 -3 14 -12 21
-15 12 -16 11 -11 -9 4 -15 3 -20 -5 -15 -7 4 -6 0 1 -10 8 -9 11 -21 7 -26
-3 -6 -9 -30 -14 -53 -5 -33 -9 -10 -14 102 -7 160 -38 307 -96 456 -35 91
-68 145 -50 84 55 -195 59 -594 8 -829 -7 -33 -15 -48 -23 -45 -16 6 -38 -19
-34 -37 2 -9 -4 -13 -16 -11 -10 2 -15 -1 -12 -6 3 -6 -1 -13 -10 -16 -10 -4
-13 -2 -8 6 4 7 3 8 -4 4 -7 -4 -12 -13 -12 -20 0 -8 -8 -20 -17 -27 -16 -12
-17 -12 -5 2 11 14 9 16 -15 11 -16 -2 -36 -11 -45 -19 -9 -8 -22 -12 -28 -8
-7 4 -17 1 -22 -6 -8 -11 -9 -10 -4 3 3 10 1 20 -4 23 -6 4 -10 1 -10 -4 0 -6
-5 -11 -10 -11 -6 0 -9 6 -8 13 2 7 -6 11 -19 9 -16 -2 -23 2 -23 13 0 9 4 13
10 10 5 -3 7 0 4 8 -3 8 5 38 17 68 61 154 90 255 95 333 5 80 5 81 -13 56
-17 -23 -135 -153 -191 -210 -21 -21 -24 -22 -17 -5 36 94 101 299 120 380
l24 100 -22 -30 c-12 -16 -57 -74 -100 -127 -79 -99 -109 -129 -88 -89 7 11 9
21 6 21 -3 0 -1 9 5 20 6 11 7 20 1 20 -5 0 -3 19 4 43 7 24 12 60 11 80 -1
19 2 33 6 31 5 -3 8 2 8 11 0 9 -4 13 -10 10 -5 -3 -10 -1 -10 4 0 6 7 11 16
11 15 0 15 2 1 24 -19 28 -10 44 9 18 12 -15 12 -15 7 6 -3 12 -9 22 -12 22
-4 0 -8 7 -8 15 0 8 7 15 15 15 9 0 12 3 9 7 -4 3 -1 13 6 21 6 9 7 13 1 9 -7
-4 -11 11 -10 48 0 29 3 52 5 49 2 -2 10 1 18 8 11 9 12 7 7 -8 -4 -14 -3 -15
4 -6 5 7 7 25 4 39 -4 19 -2 24 7 18 9 -5 12 -1 9 12 -2 11 4 28 12 39 14 18
14 18 -2 5 -19 -14 -22 -12 -12 13 3 9 10 14 14 11 5 -3 12 0 16 6 4 8 3 9 -4
5 -8 -5 -10 2 -5 25 5 26 3 30 -8 24 -12 -8 -12 -6 0 8 16 20 25 23 15 5 -5
-9 -4 -10 4 -3 13 12 33 95 26 107 -3 4 2 5 11 2 9 -4 15 -3 14 2 -1 5 1 17 6
27 4 9 5 26 2 37 -3 11 0 18 7 17 6 -1 10 6 10 16 -1 9 3 17 8 17 6 0 8 7 4
15 -3 8 0 15 7 15 8 0 6 4 -3 10 -13 8 -13 10 2 10 12 0 15 5 11 17 -4 10 -2
14 4 10 7 -5 9 0 6 13 -3 11 -2 28 2 37 5 10 8 21 7 25 -1 3 5 8 12 11 14 6
67 -95 126 -240 18 -46 35 -81 37 -79 7 7 -59 209 -97 298 -47 108 -93 179
-129 201 -37 22 -74 4 -139 -68 -108 -118 -234 -337 -307 -535 -20 -52 -33
-82 -30 -67 4 20 2 27 -5 22 -7 -4 -5 7 4 23 19 36 21 66 5 56 -8 -4 -9 1 -5
17 8 27 13 33 -53 -56 -17 -23 -52 -84 -79 -138 -27 -53 -52 -94 -57 -89 -5 4
-5 1 -1 -6 4 -6 0 -19 -8 -28 -14 -13 -16 -13 -16 0 0 24 46 186 74 259 14 37
24 67 22 67 -14 0 -172 -300 -220 -419 -34 -85 -64 -193 -72 -264 -7 -56 -7
-57 -27 -40 -18 16 -19 28 -14 133 5 130 25 201 100 362 132 280 445 724 637
902 99 91 151 111 209 81z m-3294 -116 c134 -81 441 -369 622 -584 131 -156
360 -508 351 -541 -5 -20 14 -74 24 -68 7 4 8 2 4 -5 -4 -6 -2 -28 5 -49 7
-20 14 -39 14 -42 1 -3 7 -32 14 -65 7 -32 13 -76 13 -97 -1 -21 2 -38 5 -38
3 0 34 29 69 65 176 180 424 275 688 262 228 -10 417 -95 629 -281 31 -28 55
-51 53 -53 -2 -2 -46 24 -97 57 -119 79 -239 136 -336 161 -77 19 -178 26
-169 11 3 -5 -1 -9 -9 -9 -8 0 -15 4 -15 9 0 4 -21 8 -47 8 l-48 0 83 -47 c46
-26 100 -62 120 -81 22 -20 27 -28 12 -19 -45 29 -151 76 -193 88 -56 15 -253
14 -319 -1 -29 -7 -81 -25 -116 -40 l-64 -27 79 -7 c79 -6 152 -27 208 -60 17
-9 21 -14 10 -10 -82 28 -122 35 -205 38 -52 2 -106 0 -120 -4 -24 -8 -24 -8
6 -9 58 -2 158 -40 227 -86 37 -25 67 -48 67 -50 0 -3 -23 4 -52 16 -124 48
-322 66 -442 39 -53 -12 -64 -9 -43 9 29 23 -21 216 -90 355 -49 98 -154 254
-239 357 -90 107 -108 121 -50 36 51 -74 116 -201 116 -225 0 -10 7 -28 16
-41 16 -22 16 -23 -5 -12 -12 7 -31 27 -44 46 -119 180 -164 239 -217 285 -33
28 -60 50 -60 48 0 -3 7 -19 16 -37 9 -17 13 -38 10 -46 -3 -8 -1 -15 5 -15 6
0 7 -5 4 -10 -4 -6 -43 44 -87 111 -112 172 -203 281 -332 397 -145 131 -191
113 -240 -97 -25 -105 -52 -299 -43 -307 4 -4 10 21 32 146 10 54 30 118 42
138 7 12 11 28 6 35 -5 9 -3 9 9 0 8 -7 17 -10 20 -7 3 2 8 -2 12 -11 3 -9 2
-13 -4 -10 -6 3 -10 1 -10 -4 0 -6 9 -11 21 -11 15 0 19 -5 15 -15 -6 -17 2
-19 24 -5 13 8 12 11 -5 25 -20 16 -20 16 2 5 24 -11 28 -56 6 -75 -14 -12 0
-55 19 -55 6 0 3 -7 -8 -15 -15 -12 -15 -14 -2 -9 9 3 25 0 35 -6 16 -10 16
-11 1 -6 -20 6 -21 5 -12 -18 3 -9 10 -13 15 -10 5 3 16 -2 25 -10 8 -9 13
-16 10 -16 -3 0 2 -8 12 -18 11 -12 21 -16 29 -10 7 5 14 5 18 -2 4 -6 1 -9
-6 -8 -6 2 -14 -3 -17 -11 -3 -10 0 -12 14 -7 15 6 17 5 7 -5 -17 -17 -16 -30
1 -23 25 9 29 -17 6 -41 -13 -13 -17 -25 -11 -29 5 -4 12 -2 16 4 3 5 12 10
18 10 8 0 8 -3 -2 -9 -10 -6 -10 -13 -2 -28 5 -11 7 -23 4 -27 -3 -3 -1 -6 5
-6 5 0 12 6 15 13 2 6 3 -9 2 -35 0 -26 2 -45 7 -42 12 8 38 -52 33 -77 -4
-23 -4 -24 11 -4 15 19 15 19 10 -8 -4 -21 -1 -27 8 -24 7 3 13 -1 13 -9 0 -7
-4 -11 -9 -8 -15 10 -8 -13 12 -39 11 -14 20 -30 20 -37 0 -6 4 -9 9 -5 5 3
13 0 17 -6 4 -8 3 -9 -4 -5 -7 4 -12 4 -13 -1 0 -4 -2 -16 -4 -26 -2 -13 1
-17 11 -13 12 5 12 2 3 -15 -6 -12 -7 -19 -2 -16 4 3 17 -2 28 -10 14 -11 15
-14 4 -10 -12 4 -16 -1 -16 -19 0 -13 3 -22 7 -19 4 3 13 -1 19 -9 9 -11 8
-14 -6 -12 -11 0 -17 -5 -14 -14 2 -8 4 -20 4 -27 0 -6 6 -9 13 -6 8 3 11 -2
10 -14 -2 -10 0 -22 4 -28 8 -10 10 -16 10 -35 0 -5 6 -10 13 -10 8 0 14 -7
14 -15 0 -16 -13 -21 -19 -7 -5 13 -201 173 -205 168 -3 -2 5 -24 15 -48 71
-155 135 -285 166 -338 l36 -61 -130 105 c-72 58 -132 106 -134 106 -8 0 31
-125 61 -195 16 -39 55 -110 87 -159 31 -49 55 -95 52 -103 -3 -8 -2 -12 3 -9
5 3 14 0 20 -8 15 -18 -11 -30 -29 -13 -10 9 -11 9 -5 -2 6 -11 3 -13 -14 -8
-18 4 -20 3 -11 -8 15 -18 -4 -29 -36 -21 -15 4 -22 11 -18 18 4 7 3 8 -5 4
-6 -4 -9 -12 -6 -17 10 -15 -13 -10 -57 11 -23 11 -44 18 -46 15 -3 -3 1 -5 8
-5 7 0 11 -3 7 -6 -3 -3 -25 9 -49 28 -44 35 -84 56 -73 38 3 -6 11 -10 16
-10 12 0 39 -25 39 -36 0 -4 -10 1 -22 12 -19 17 -21 17 -15 2 12 -33 -1 -18
-26 30 -86 165 -156 520 -158 800 l-1 147 -18 -75 c-52 -208 -57 -421 -17
-678 2 -15 2 -21 0 -14 -3 7 -8 10 -13 7 -4 -3 -14 3 -21 13 -13 15 -12 16 4
3 18 -14 21 -12 11 13 -3 9 -10 13 -15 10 -5 -3 -10 0 -10 5 -1 6 -3 16 -4 21
-1 6 -3 20 -4 31 -1 19 -3 20 -18 8 -17 -13 -17 -12 -4 4 16 20 22 57 11 57
-4 0 -16 -8 -28 -18 -17 -15 -19 -21 -9 -32 9 -10 9 -11 0 -6 -7 4 -13 2 -13
-4 0 -6 -5 -8 -11 -4 -8 4 -7 9 2 15 12 7 11 9 0 9 -8 0 0 11 19 25 43 32 50
67 16 83 -21 9 -27 8 -40 -11 -14 -20 -15 -20 -10 -2 5 16 4 17 -5 5 -8 -11
-7 -18 6 -27 9 -7 12 -13 5 -13 -8 0 -11 -19 -8 -60 3 -56 -3 -73 -11 -32 -23
110 -30 561 -12 762 35 387 107 733 175 842 48 76 114 85 209 27z m-20 -309
c10 -11 14 -20 9 -20 -5 0 -15 9 -22 20 -7 11 -11 20 -9 20 2 0 12 -9 22 -20z
m-25 -16 c0 -8 -19 -13 -24 -6 -3 5 1 9 9 9 8 0 15 -2 15 -3z m34 -162 c3 -5
-1 -9 -9 -9 -8 0 -12 4 -9 9 3 4 7 8 9 8 2 0 6 -4 9 -8z m235 -336 c8 -10 9
-16 1 -21 -6 -4 -10 -3 -9 2 3 20 -2 23 -23 13 -22 -11 -22 -10 -4 4 24 19 21
19 35 2z m-23 -48 c0 -10 -1 -18 -3 -18 -1 0 -7 8 -12 18 -7 13 -6 19 2 19 7
0 13 -9 13 -19z m3591 -524 c-3 -3 -12 -4 -19 -1 -8 3 -5 6 6 6 11 1 17 -2 13
-5z m-4090 -133 c-1 -17 -3 -17 -23 -4 -28 18 -22 48 6 33 10 -6 18 -19 17
-29z m-42 -30 c3 -5 2 -12 -3 -15 -5 -3 -9 1 -9 9 0 17 3 19 12 6z m2895 -220
c-20 -7 -14 -9 35 -16 33 -4 74 -13 90 -21 l30 -13 -40 5 c-83 10 -165 8 -165
-4 0 -6 86 -13 212 -16 20 -1 34 -4 32 -7 -4 -7 45 -24 59 -20 5 1 6 -3 3 -8
-4 -5 4 -13 16 -17 28 -8 70 -35 65 -41 -2 -2 -33 3 -68 12 -89 21 -91 19 -30
-16 86 -49 152 -100 144 -111 -4 -7 -1 -8 6 -3 14 8 73 -43 65 -57 -3 -4 -11
-5 -17 -1 -7 4 -6 0 2 -10 15 -18 26 -23 16 -7 -16 25 26 7 45 -20 12 -16 18
-30 14 -30 -4 0 0 -6 11 -13 14 -11 15 -16 5 -22 -9 -6 -11 -4 -5 5 5 9 4 11
-3 6 -11 -7 -17 6 -13 27 1 5 -4 5 -10 1 -7 -4 -9 -3 -6 3 4 6 0 19 -8 29 -15
19 -15 19 -8 0 5 -15 3 -17 -8 -11 -8 5 1 -9 19 -30 18 -22 40 -40 49 -40 20
0 106 -157 91 -166 -9 -6 16 -69 28 -69 2 0 -2 14 -11 30 -9 17 -11 30 -5 30
11 0 25 -47 22 -72 -2 -9 2 -19 8 -23 6 -3 8 -11 5 -16 -4 -5 -2 -9 3 -9 6 0
13 -11 16 -24 3 -13 8 -32 12 -43 3 -10 -4 -1 -16 20 -11 20 -23 37 -26 37 -3
0 -2 -6 2 -12 5 -9 2 -8 -10 1 -9 8 -13 17 -8 20 5 3 1 20 -9 36 -13 20 -19
24 -19 13 0 -9 5 -20 10 -23 6 -3 10 -11 10 -17 0 -6 -11 -1 -25 12 -14 13
-25 19 -25 13 0 -5 9 -18 20 -28 11 -10 38 -56 61 -104 46 -95 120 -301 109
-301 -9 0 -24 31 -22 43 1 4 -2 7 -7 7 -10 0 -26 49 -22 65 2 5 0 7 -4 3 -4
-4 -18 5 -31 20 l-24 27 20 -55 c12 -30 23 -64 25 -75 5 -27 48 -149 54 -155
4 -3 6 -11 6 -19 0 -9 27 -23 68 -37 133 -45 233 -115 319 -222 53 -66 108
-166 108 -193 0 -11 -2 -11 -9 -1 -9 15 -138 69 -196 82 -23 5 -50 12 -61 16
-15 6 -13 2 6 -14 l25 -22 -40 16 c-22 8 -49 19 -60 24 -33 14 -88 30 -92 27
-1 -2 16 -18 40 -35 93 -68 207 -194 247 -273 16 -31 27 -59 24 -62 -3 -3 3
-23 14 -46 11 -22 17 -43 14 -46 -3 -3 -127 -5 -274 -5 -254 1 -269 2 -281 21
-6 10 -17 19 -22 19 -6 0 -12 10 -12 22 -1 13 -9 28 -17 34 -9 6 -14 13 -12
15 2 2 -3 11 -12 19 -14 13 -15 12 -9 -3 4 -11 3 -16 -3 -12 -6 3 -10 13 -10
21 0 8 -5 14 -11 14 -5 0 -8 -4 -5 -8 2 -4 0 -14 -6 -22 -8 -12 -9 -12 -4 2 3
10 -2 24 -10 33 -21 21 -40 19 -23 -2 13 -17 12 -17 -4 -4 -16 13 -20 13 -28
0 -10 -16 -12 -8 -3 15 3 9 11 13 17 9 7 -4 8 0 3 12 -7 18 -6 18 14 0 16 -14
20 -15 20 -3 0 17 -44 61 -52 52 -4 -3 -11 3 -17 14 -6 11 -18 23 -28 26 -12
5 -8 -3 11 -23 16 -17 34 -28 40 -25 6 3 3 -1 -7 -9 -12 -10 -14 -16 -6 -19 9
-3 9 -9 0 -27 -11 -19 -23 -27 -18 -11 1 3 -20 27 -46 53 -55 53 -102 80 -179
102 -29 8 -69 20 -88 28 -19 8 -50 20 -67 26 -18 7 -33 17 -33 23 0 5 -4 6
-10 3 -5 -3 -10 -2 -10 3 0 5 -21 21 -47 35 -107 58 -204 159 -261 272 -78
156 -112 335 -112 597 -1 236 19 365 71 470 16 32 29 62 29 68 0 24 -32 7 -56
-30 -31 -46 -37 -50 -24 -16 54 143 159 237 305 272 56 14 159 18 115 5z m977
-33 c-3 -7 -5 -2 -5 12 0 14 2 19 5 13 2 -7 2 -19 0 -25z m-2387 -9 c143 -23
290 -141 347 -277 l15 -37 -49 51 c-27 28 -59 57 -71 63 -18 9 -13 -3 23 -57
88 -137 128 -313 128 -572 1 -226 -28 -380 -99 -526 -72 -147 -165 -237 -342
-330 -56 -29 -69 -40 -56 -44 11 -4 -5 -11 -47 -19 -147 -28 -207 -64 -258
-153 -22 -38 -30 -46 -33 -32 -2 11 2 30 9 43 6 14 10 28 7 33 -3 5 0 15 6 23
10 12 9 15 -4 15 -9 0 -16 -7 -16 -16 0 -8 -4 -12 -10 -9 -15 9 -113 -92 -104
-108 4 -6 3 -9 -1 -4 -10 8 -65 -41 -65 -57 0 -16 -48 -66 -63 -66 -7 0 -119
-7 -250 -16 -219 -15 -268 -15 -241 4 5 4 9 14 9 22 -1 8 1 19 4 25 3 5 5 19
6 30 0 11 5 19 12 18 7 -2 17 6 23 18 11 19 10 20 -9 10 -19 -10 -18 -8 6 39
14 27 30 47 36 43 6 -3 7 -1 3 6 -11 18 17 55 118 159 50 51 82 90 71 86 -11
-4 -26 -12 -34 -18 -12 -9 -13 -8 -6 4 6 12 5 13 -6 3 -7 -7 -21 -13 -32 -13
-10 0 -16 -4 -13 -9 3 -5 -1 -11 -9 -15 -8 -3 -15 -1 -15 4 0 6 -5 10 -10 10
-6 0 -9 -5 -8 -12 2 -7 -1 -12 -7 -13 -5 0 -34 -13 -62 -27 -29 -15 -53 -25
-53 -22 0 3 -7 -2 -17 -11 -14 -15 -17 -15 -25 -1 -7 13 -13 13 -36 4 -15 -7
-37 -20 -49 -31 l-22 -19 20 63 c60 191 219 340 422 395 32 9 56 18 53 21 -3
3 1 15 9 27 19 26 20 60 3 50 -8 -5 -8 -1 1 10 8 9 16 29 17 42 2 20 -1 24
-14 20 -12 -4 -10 -1 4 11 13 11 26 39 32 68 6 28 14 59 17 70 3 11 -8 -8 -25
-43 -17 -34 -35 -60 -40 -57 -6 4 -10 1 -10 -6 0 -7 -3 -10 -6 -7 -6 6 48 191
70 243 8 17 21 51 31 78 10 26 22 47 26 47 5 0 9 5 9 12 0 20 -58 -43 -80 -86
-17 -36 -19 -37 -14 -11 3 17 8 37 11 45 3 8 6 26 7 40 0 14 6 24 13 23 7 -2
10 3 7 11 -3 8 4 24 15 35 21 21 30 58 11 46 -5 -3 -10 -2 -10 4 0 14 35 32
45 23 5 -4 5 -2 2 4 -4 7 0 17 8 24 8 7 15 17 15 22 0 5 -11 -4 -24 -19 -23
-26 -25 -27 -23 -6 0 12 5 19 11 16 5 -4 7 1 3 9 -3 9 2 23 13 33 11 10 19 20
18 24 -2 12 20 57 36 70 9 7 16 19 16 27 0 35 131 163 275 269 18 13 17 14
-15 5 -19 -6 -54 -19 -78 -31 -62 -29 -62 -18 0 23 83 55 174 98 252 118 39
10 61 19 49 19 -38 1 -35 20 4 24 21 2 40 4 43 5 3 1 34 -3 70 -9z m2103 -58
c-12 -10 -20 -21 -18 -25 3 -3 2 -3 -2 0 -15 11 -8 29 12 36 31 10 32 9 8 -11z
m144 3 c-3 -3 -12 -4 -19 -1 -8 3 -5 6 6 6 11 1 17 -2 13 -5z m-3182 -144 c3
-6 -1 -7 -9 -4 -18 7 -21 14 -7 14 6 0 13 -4 16 -10z m215 -485 c0 -8 -4 -15
-10 -15 -5 0 -7 7 -4 15 4 8 8 15 10 15 2 0 4 -7 4 -15z m-109 -492 c-12 -20
-14 -14 -5 12 4 9 9 14 11 11 3 -2 0 -13 -6 -23z m1559 -154 c13 -9 12 -10 -2
-5 -18 5 -20 1 -21 -41 0 -14 -4 -20 -14 -16 -8 3 -12 11 -9 18 6 17 -21 28
-28 12 -3 -9 -7 -8 -15 3 -5 8 -13 11 -17 7 -4 -3 -2 -13 5 -21 9 -11 8 -15
-3 -19 -10 -4 -13 -1 -9 9 4 10 0 13 -13 8 -15 -5 -16 -4 -5 4 13 9 13 13 0
28 -13 16 -12 17 19 11 18 -4 31 -3 28 1 -8 13 67 13 84 1z m76 -16 c19 -25
17 -41 -2 -17 -15 18 -15 18 -11 -8 2 -15 0 -25 -4 -22 -5 3 -9 12 -9 21 0 9
-8 22 -17 29 -17 12 -16 13 6 14 13 0 30 -8 37 -17z m-248 0 c-10 -2 -18 -9
-18 -15 0 -6 -3 -9 -6 -5 -10 10 6 27 24 26 15 -1 15 -2 0 -6z m182 -7 c0 -11
-19 -15 -25 -6 -3 5 1 10 9 10 9 0 16 -2 16 -4z m146 -12 c18 -15 18 -15 -2
-5 -12 6 -24 7 -28 4 -3 -3 -6 -1 -6 5 0 16 12 15 36 -4z m-302 -33 c-2 -3
-12 3 -22 13 -16 17 -16 18 5 5 12 -7 20 -15 17 -18z m228 -152 c58 -12 138
-48 178 -80 l25 -20 -30 7 c-16 3 -50 12 -75 19 -79 24 -113 29 -105 15 6 -9
2 -9 -15 0 -18 10 -24 9 -31 -1 -5 -8 -9 -9 -9 -4 0 11 -120 16 -120 6 0 -3
-21 -6 -47 -6 -73 0 -171 -23 -201 -47 -11 -9 -10 -4 3 14 11 14 22 26 25 25
3 -1 29 11 58 26 100 52 232 69 344 46z m1703 -99 c3 -5 1 -10 -4 -10 -6 0
-11 5 -11 10 0 6 2 10 4 10 3 0 8 -4 11 -10z m865 -141 c91 -15 142 -40 209
-104 112 -107 155 -249 116 -390 -27 -102 -104 -193 -195 -232 l-35 -15 39
-20 c59 -30 138 -115 172 -183 26 -55 29 -69 29 -165 0 -99 -2 -110 -33 -172
-41 -83 -120 -158 -200 -189 -86 -33 -209 -37 -291 -9 -114 38 -204 118 -258
229 -26 51 -28 65 -26 158 1 88 11 143 38 218 12 32 -45 -46 -62 -85 -9 -19
-15 -54 -15 -77 1 -23 -2 -44 -6 -47 -4 -2 -98 4 -208 14 -286 27 -734 49
-1147 57 l-358 6 81 24 c97 28 127 42 199 97 107 81 216 243 257 382 l15 54
618 0 c462 0 620 -3 629 -12 17 -17 26 -3 13 20 -15 28 -16 128 -2 178 14 53
81 155 117 181 49 34 116 66 169 79 64 16 59 16 135 3z m-2533 -9 c123 -13
191 -40 242 -95 22 -24 47 -60 56 -81 21 -51 19 -55 -8 -12 -29 47 -62 73
-117 90 -60 18 -511 18 -590 0 -81 -19 -138 -49 -165 -90 -14 -20 -25 -30 -25
-21 0 18 50 98 76 121 83 73 311 111 531 88z m793 -66 c0 -3 -13 4 -30 16 -16
12 -30 24 -30 26 0 3 14 -4 30 -16 17 -12 30 -24 30 -26z m-1804 1 c-26 -23
-46 -32 -46 -21 0 5 63 46 70 46 3 0 -8 -11 -24 -25z m2046 -60 c2 3 5 -2 5
-10 0 -19 0 -19 -23 7 -12 14 -13 18 -3 10 9 -6 18 -10 21 -7z m35 -20 c0 -8
-4 -12 -9 -9 -5 3 -6 10 -3 15 9 13 12 11 12 -6z m-3545 -47 c124 -57 212
-184 211 -305 0 -54 2 -61 16 -54 38 20 609 57 922 60 l196 2 27 -63 c94 -224
266 -389 455 -440 50 -13 76 -24 61 -25 -14 -1 -133 -9 -265 -18 -241 -16
-476 -37 -615 -55 -41 -5 -149 -19 -240 -31 -154 -19 -281 -39 -357 -55 -32
-6 -33 -5 -33 27 0 42 -32 107 -71 145 -34 32 -34 33 5 -57 44 -103 40 -251
-10 -356 -122 -256 -473 -323 -666 -125 -170 173 -146 454 50 607 l43 33 -64
31 c-77 37 -148 109 -184 187 -20 45 -25 71 -25 137 -1 167 85 298 238 363 52
22 71 24 154 21 77 -2 106 -8 152 -29z m1162 -14 c3 -8 2 -12 -4 -9 -6 3 -10
10 -10 16 0 14 7 11 14 -7z m2450 -16 c6 -4 -6 -8 -27 -8 -27 0 -37 4 -34 13
2 6 12 11 21 11 9 -1 16 3 17 10 0 6 3 4 6 -4 3 -8 11 -18 17 -22z m-94 7 c7
-9 8 -15 2 -15 -5 0 -12 7 -16 15 -3 8 -4 15 -2 15 2 0 9 -7 16 -15z m140 0
c10 -12 10 -15 -3 -15 -8 0 -17 7 -21 15 -3 8 -2 15 3 15 5 0 14 -7 21 -15z
m-2535 -35 c3 -5 1 -10 -4 -10 -6 0 -11 5 -11 10 0 6 2 10 4 10 3 0 8 -4 11
-10z m-65 -20 c8 -5 11 -10 5 -10 -5 0 -17 5 -25 10 -8 5 -10 10 -5 10 6 0 17
-5 25 -10z m107 4 c-3 -3 -12 -4 -19 -1 -8 3 -5 6 6 6 11 1 17 -2 13 -5z m987
-284 c-11 -11 -38 -15 -74 -10 -16 2 -6 6 25 10 28 4 52 8 55 8 2 1 0 -2 -6
-8z m331 -350 c3 -6 -1 -7 -9 -4 -18 7 -21 14 -7 14 6 0 13 -4 16 -10z m-445
-26 c0 -2 -7 -4 -15 -4 -8 0 -15 4 -15 10 0 5 7 7 15 4 8 -4 15 -8 15 -10z
m280 -215 c0 -29 14 -23 27 11 10 27 13 28 42 20 17 -5 31 -6 31 -4 0 3 6 2
13 -3 6 -4 18 -8 26 -10 7 -1 27 -7 43 -14 23 -9 28 -17 26 -38 -2 -20 -15
-32 -53 -51 -43 -22 -63 -25 -150 -25 -64 1 -109 6 -125 14 -34 18 -80 62 -80
76 0 16 43 35 94 42 23 3 50 9 61 13 24 9 45 -5 45 -31z m-286 -98 l48 -49
-18 -26 c-11 -14 -22 -26 -25 -26 -13 0 -88 72 -94 91 -6 19 17 59 34 59 4 0
28 -22 55 -49z m674 37 c21 -21 13 -43 -33 -88 l-45 -44 -24 23 -25 24 42 48
c43 50 63 59 85 37z m1221 -118 c22 -11 49 -36 61 -56 23 -36 23 -37 16 -328
-4 -160 -9 -345 -11 -411 -2 -66 -7 -210 -10 -320 -3 -110 -8 -208 -11 -217
-3 -10 -1 -18 5 -18 5 0 43 -4 83 -10 40 -5 144 -16 230 -24 174 -15 206 -27
245 -86 42 -61 26 -173 -32 -218 -45 -36 -81 -40 -205 -27 -63 7 -146 16 -185
19 -151 13 -302 27 -348 33 -53 6 -99 33 -130 75 -22 29 -23 -47 13 1043 15
453 18 474 68 518 52 47 149 59 211 27z m-2407 -54 c24 -63 96 -173 150 -232
116 -126 324 -241 474 -262 46 -7 47 -7 65 -63 27 -88 34 -152 33 -314 -1
-136 -3 -157 -28 -230 -84 -243 -243 -407 -474 -488 -74 -26 -105 -31 -213
-35 -103 -3 -140 -1 -205 16 -159 40 -290 120 -374 227 -25 32 -52 66 -60 76
-14 18 -19 18 -60 5 -25 -7 -98 -24 -163 -36 -97 -19 -117 -26 -113 -39 3 -9
7 -50 11 -91 3 -41 10 -105 16 -141 18 -115 -20 -165 -145 -189 -96 -18 -160
1 -185 57 -10 23 -25 146 -45 373 -17 194 -37 406 -41 434 -2 17 -7 67 -10
111 -4 44 -8 94 -10 110 -2 17 -7 71 -10 122 l-6 92 58 29 c126 64 227 161
283 273 l29 56 68 6 c150 15 260 9 340 -18 l76 -26 41 40 c96 93 331 194 440
188 36 -2 40 -5 58 -51z m746 17 c59 -4 125 -1 178 7 76 12 87 12 101 -3 15
-15 14 -17 -13 -27 -103 -40 -350 -40 -413 0 -22 13 6 43 33 35 12 -3 63 -8
114 -12z m3402 -79 c35 -8 106 -35 158 -59 440 -209 657 -670 527 -1120 -40
-139 -104 -247 -207 -353 -65 -67 -119 -104 -211 -147 -128 -59 -236 -81 -387
-78 -421 8 -757 314 -811 738 -30 244 30 483 166 661 l47 61 77 6 c179 14 362
124 446 266 l30 52 50 -7 c28 -3 79 -12 115 -20z m-2935 -101 c-92 -81 -227
-133 -365 -140 -117 -6 -202 12 -315 67 -91 43 -182 116 -147 116 11 0 18 -4
16 -8 -3 -4 2 -8 11 -8 9 0 30 -9 46 -21 42 -30 146 -74 209 -90 31 -7 106
-13 170 -12 104 0 123 3 200 32 84 32 146 64 165 87 14 16 49 34 55 27 3 -3
-17 -25 -45 -50z m-3490 -17 c32 -14 44 -33 149 -248 63 -128 178 -368 256
-533 79 -165 192 -401 253 -525 65 -133 112 -242 114 -266 10 -85 -45 -136
-168 -155 -63 -10 -80 -9 -112 4 -35 15 -43 27 -97 140 l-60 124 -107 -28
c-60 -15 -183 -47 -275 -70 l-168 -43 0 -33 c0 -54 -38 -231 -56 -262 -21 -35
-57 -53 -155 -76 -72 -17 -77 -17 -113 0 -38 18 -66 58 -66 95 0 11 11 82 25
158 14 75 28 152 31 171 8 46 9 55 33 162 19 88 23 108 36 184 31 169 55 294
105 545 32 162 62 309 65 325 3 17 10 54 15 84 24 137 54 197 113 228 69 35
128 41 182 19z m3596 -1070 c17 -3 120 -6 228 -6 188 0 198 -1 241 -24 59 -31
85 -75 84 -142 -1 -69 -28 -113 -84 -141 -43 -22 -52 -23 -367 -23 -361 0
-409 6 -448 52 l-25 30 0 497 0 498 54 11 c68 14 204 66 248 95 l33 23 3 -432
2 -432 31 -6z m804 -540 c138 -9 270 -18 295 -21 25 -2 133 -12 240 -20 376
-30 627 -61 915 -110 216 -37 292 -53 314 -65 57 -30 67 -105 24 -172 -23 -38
-27 -40 -34 -23 -4 12 -8 14 -8 6 -1 -8 -4 -12 -7 -8 -3 3 -3 11 1 17 5 8 11
8 21 -1 10 -8 14 -8 14 -1 0 6 -9 16 -19 21 -14 8 -20 7 -25 -4 -7 -18 -44
-14 -57 6 -5 8 -9 10 -9 6 0 -4 -9 -3 -20 3 -16 9 -20 8 -20 -5 0 -8 0 -18 -1
-22 0 -4 5 -9 12 -12 6 -2 9 1 5 7 -3 6 -2 13 3 17 6 3 15 -4 21 -15 9 -17 14
-19 26 -9 10 8 14 8 14 0 0 -6 -5 -11 -11 -11 -5 0 -8 -4 -5 -8 2 -4 -4 -8
-14 -8 -11 0 -16 5 -12 15 3 9 0 12 -9 9 -8 -3 -13 -12 -11 -19 3 -11 1 -11
-9 -2 -6 6 -17 10 -23 9 -6 -2 -8 -1 -3 1 4 3 7 10 7 16 0 5 -3 7 -6 4 -4 -3
-16 0 -27 8 -14 9 -26 11 -37 5 -22 -12 -60 23 -38 36 7 4 10 4 6 -1 -4 -4 -3
-14 3 -21 9 -11 16 -10 37 4 14 9 23 11 19 5 -5 -7 -4 -13 2 -13 6 0 11 7 11
15 0 9 -9 15 -25 15 -14 0 -25 -6 -25 -12 0 -9 -3 -9 -9 1 -5 8 -20 16 -33 18
-13 1 -35 5 -50 8 -16 2 -28 0 -28 -5 0 -6 3 -9 8 -9 23 4 52 -2 52 -11 0 -6
-11 -8 -25 -6 -14 3 -23 1 -20 -5 4 -5 1 -9 -4 -9 -6 0 -11 7 -11 16 0 8 -4
13 -10 9 -14 -9 0 -36 19 -33 9 1 22 -1 29 -5 7 -5 12 -3 12 5 0 9 3 9 10 -2
7 -11 10 -11 10 -2 0 7 5 10 11 6 18 -11 -7 -21 -44 -18 -17 1 -43 3 -57 3
-19 1 -26 7 -27 24 -2 21 -1 21 12 3 13 -18 14 -18 12 3 -1 22 -31 29 -42 11
-5 -8 -11 -8 -19 -1 -7 6 -16 7 -21 3 -4 -4 -4 3 -1 15 4 12 2 24 -4 28 -5 3
-10 -1 -10 -9 0 -9 -4 -16 -9 -16 -5 0 -16 -3 -25 -6 -10 -4 -19 2 -27 19 -9
20 -17 24 -38 20 -14 -2 -35 -5 -46 -6 -11 -1 -23 -6 -26 -10 -3 -4 -12 -1
-19 8 -12 14 -10 15 18 10 19 -3 32 -1 32 5 0 5 -15 11 -32 11 -18 1 -50 3
-70 4 -27 2 -35 -1 -31 -11 5 -12 -5 -16 -34 -13 -5 0 -7 7 -5 14 3 17 -38 30
-68 22 -11 -3 -22 -2 -25 2 -2 4 -30 9 -62 10 -32 2 -69 4 -83 4 -15 1 -24 -3
-22 -10 1 -7 -5 -13 -14 -13 -10 0 -14 6 -11 14 6 16 -40 29 -49 14 -3 -4 -10
-6 -15 -3 -5 4 -12 -1 -15 -9 -3 -9 -11 -16 -17 -16 -7 0 -7 4 1 12 16 16 15
29 -2 22 -8 -3 -17 -1 -21 5 -9 15 -55 14 -55 -1 0 -10 -3 -9 -9 1 -6 9 -11
10 -15 2 -4 -6 -2 -12 3 -12 6 -1 17 -2 24 -3 6 0 12 -6 12 -13 0 -19 11 -24
53 -25 26 0 47 6 58 17 17 17 19 16 33 -1 10 -11 26 -18 40 -16 14 2 21 0 17
-7 -4 -6 2 -8 14 -6 11 2 20 0 20 -5 0 -5 10 -10 23 -13 12 -2 -5 -2 -38 1
-33 2 -64 8 -69 12 -5 5 -15 6 -22 3 -8 -3 -48 -2 -90 2 -62 6 -73 9 -63 21 9
11 6 16 -14 23 -14 5 -27 16 -30 23 -4 9 -11 6 -25 -11 -13 -16 -21 -20 -26
-12 -4 6 -13 8 -19 4 -8 -5 -8 -2 0 9 16 19 7 28 -26 27 -25 -1 -25 -2 4 -9
22 -6 25 -8 10 -10 -11 -1 -24 -2 -29 -1 -4 1 -5 -10 -2 -25 6 -23 5 -26 -7
-16 -8 7 -18 8 -23 4 -4 -4 -3 0 4 10 8 10 9 19 3 22 -5 4 -12 -3 -16 -14 -5
-16 -15 -20 -48 -19 -54 1 -86 12 -67 24 9 5 15 4 18 -3 2 -7 9 -12 15 -12 8
0 8 3 0 11 -6 6 -9 18 -6 26 4 11 8 9 17 -8 11 -22 41 -33 59 -22 4 3 0 11
-10 18 -14 10 -21 11 -32 2 -12 -10 -14 -9 -8 5 3 10 2 20 -3 23 -13 8 -40 -6
-34 -19 3 -6 -4 0 -15 14 -11 14 -21 20 -21 14 0 -5 5 -15 11 -21 8 -8 8 -13
0 -17 -6 -4 -11 -2 -11 5 0 15 -61 4 -75 -14 -12 -14 -45 -22 -45 -10 0 4 -60
9 -133 10 -218 3 -272 6 -279 17 -5 7 -8 7 -8 -1 0 -7 -5 -13 -11 -13 -5 0 -7
5 -4 10 3 6 1 10 -4 10 -6 0 -11 -4 -11 -10 0 -14 -43 -13 -58 2 -15 15 -15
28 -1 28 5 0 7 -5 3 -12 -4 -6 -3 -8 4 -4 6 3 13 2 17 -4 3 -5 12 -10 18 -10
7 0 6 4 -3 10 -8 5 -10 10 -5 10 6 0 11 8 11 18 0 10 -6 19 -13 19 -7 0 -10
-4 -7 -8 11 -18 -15 -17 -31 1 -17 18 -20 19 -41 5 -17 -11 -24 -12 -27 -2 -3
7 -6 5 -6 -5 -1 -9 5 -18 13 -20 11 -2 12 -5 1 -15 -10 -9 -17 -9 -31 3 -16
11 -16 13 -2 8 13 -4 15 -1 11 15 -9 35 -40 24 -34 -12 1 -5 -3 -6 -8 -2 -6 3
-7 13 -4 22 4 11 3 14 -5 9 -7 -4 -12 -3 -12 1 0 5 -20 8 -44 8 -33 0 -50 -6
-66 -23 -12 -12 -19 -26 -16 -30 3 -5 -10 -9 -29 -9 -43 0 -45 12 -5 26 39 13
39 36 -1 39 -23 2 -30 -1 -26 -11 3 -8 1 -20 -5 -28 -8 -11 -11 -11 -15 -1 -4
10 -9 9 -24 -4 -18 -16 -19 -16 -19 5 0 19 4 21 33 16 26 -5 30 -4 19 7 -14
14 -122 19 -122 5 0 -4 -5 -5 -12 -1 -7 4 -8 3 -4 -5 4 -6 0 -14 -8 -17 -21
-8 -10 -24 17 -24 14 0 18 3 10 8 -19 12 -1 27 32 28 17 1 24 -1 18 -3 -7 -3
-13 -14 -14 -26 0 -22 0 -22 -9 1 -12 28 -24 29 -15 2 6 -18 3 -20 -29 -18
-19 1 -32 6 -30 10 3 4 0 8 -5 8 -6 0 -11 -4 -11 -10 0 -5 -8 -10 -17 -10 -17
1 -17 1 0 11 13 8 15 14 8 23 -8 9 -7 13 4 13 8 0 11 -5 8 -10 -3 -5 0 -8 8
-5 8 3 15 11 17 19 4 20 -49 19 -66 -1 -10 -13 -11 -13 -6 2 5 14 0 16 -27 13
-34 -5 -57 -20 -46 -31 4 -4 13 -1 22 6 10 8 15 9 15 1 0 -6 -6 -11 -12 -11
-9 0 -8 -4 2 -11 11 -8 9 -9 -10 -3 -27 7 -42 23 -34 36 3 4 -2 8 -10 8 -19 0
-21 -11 -4 -28 9 -9 8 -12 -5 -12 -9 0 -17 6 -17 13 0 6 -5 4 -11 -5 -12 -21
-31 -24 -23 -4 3 8 0 17 -6 21 -6 4 -11 1 -9 -6 4 -34 0 -42 -16 -29 -12 10
-18 10 -31 -1 -14 -11 -18 -10 -30 6 -8 10 -14 13 -14 7 0 -7 -9 -12 -20 -12
-11 0 -20 -4 -20 -10 0 -5 -7 -10 -16 -10 -13 0 -13 2 2 17 13 14 14 18 3 22
-8 2 -17 8 -20 13 -3 5 -9 2 -12 -7 -4 -9 -3 -13 3 -10 12 7 12 3 4 -19 -3 -9
-10 -16 -16 -16 -5 0 -6 5 -3 10 7 11 -38 14 -49 3 -13 -14 -36 -11 -36 4 0
13 -3 13 -15 3 -9 -7 -18 -10 -22 -7 -3 4 -12 2 -19 -4 -10 -8 -18 -7 -30 6
-14 14 -15 18 -4 25 18 11 32 2 24 -13 -4 -7 -3 -8 1 -4 5 4 10 14 11 22 3 19
-53 17 -60 -2 -3 -7 -17 -13 -31 -13 -22 0 -25 -3 -20 -20 6 -20 3 -21 -79
-17 -48 3 -89 1 -91 -4 -7 -11 -44 -7 -42 5 1 5 -7 12 -18 14 -27 5 -46 24
-20 19 11 -1 25 -6 30 -9 6 -4 17 -3 25 2 8 5 21 5 31 -1 14 -7 17 -5 16 10
-1 16 -9 18 -57 17 -30 -1 -64 -7 -74 -13 -19 -10 -19 -11 2 -22 28 -15 28
-26 2 -28 -11 -1 -18 2 -15 7 3 5 1 12 -5 15 -6 4 -10 3 -9 -2 4 -23 -6 -28
-56 -31 -46 -2 -54 0 -49 13 3 8 11 12 17 8 6 -3 7 -1 3 6 -6 8 -12 9 -20 2
-7 -6 -16 -8 -19 -4 -4 3 -7 -3 -7 -15 0 -18 -6 -22 -27 -22 -16 0 -43 -2 -62
-6 -24 -5 -32 -3 -27 5 4 6 12 9 17 6 5 -3 6 2 2 11 -6 15 -8 15 -25 -6 -22
-27 -24 -4 -2 25 15 20 15 20 34 -5 18 -23 19 -23 14 -3 -5 17 -1 22 18 26 12
2 -4 4 -36 3 -32 0 -54 -2 -47 -4 6 -2 11 -8 11 -13 0 -6 -5 -7 -12 -3 -7 4
-8 3 -4 -4 4 -7 2 -12 -4 -12 -6 0 -13 6 -15 13 -3 6 -17 13 -32 14 -19 1 -22
-1 -12 -8 12 -7 12 -9 0 -9 -8 0 -2 -9 13 -21 15 -12 25 -24 22 -27 -3 -2 -12
1 -21 8 -9 7 -15 8 -15 2 0 -6 -8 -9 -17 -7 -10 1 -26 -2 -37 -7 -13 -7 -16
-7 -12 1 4 6 2 11 -3 11 -6 0 -11 -5 -11 -11 0 -7 -9 -9 -22 -6 -12 4 -29 1
-37 -6 -12 -10 -13 -9 -2 12 9 16 16 20 24 12 7 -7 14 -5 23 6 10 15 14 16 30
3 11 -10 15 -10 10 -2 -4 7 -3 11 2 10 6 -2 10 1 10 6 0 5 6 12 13 17 8 4 11
11 7 14 -3 3 -13 -2 -23 -11 -14 -15 -18 -15 -26 -3 -6 10 -9 10 -9 2 0 -7 -5
-13 -11 -13 -5 0 -7 5 -4 10 3 6 -3 10 -14 10 -12 0 -21 -4 -21 -8 0 -5 -14
-7 -30 -6 -27 2 -29 0 -18 -14 12 -13 10 -14 -9 -3 -19 10 -23 9 -23 -4 0 -10
7 -15 18 -13 10 2 16 -2 14 -10 -1 -8 2 -11 8 -7 5 3 10 1 10 -4 0 -14 -27
-14 -35 0 -4 5 -14 9 -23 7 -10 -2 -22 3 -29 12 -11 13 -12 13 -13 -1 0 -9 -6
-22 -14 -28 -11 -9 -15 -7 -19 9 -3 11 -13 20 -22 20 -9 0 -13 -5 -10 -10 3
-6 -1 -13 -10 -16 -13 -6 -14 -8 -3 -15 9 -6 9 -9 1 -9 -18 0 -27 21 -13 30 8
5 7 9 -5 14 -9 3 -13 11 -9 17 4 8 3 9 -5 5 -9 -6 -9 -11 1 -24 11 -13 10 -14
-16 -8 l-30 7 25 -20 24 -20 -22 2 c-13 1 -23 5 -23 10 0 4 -5 5 -12 1 -7 -5
-9 -2 -5 9 3 8 0 17 -6 19 -16 6 -118 -1 -137 -8 -8 -4 -31 -8 -50 -10 -63 -6
-61 -5 -44 -32 11 -16 13 -27 6 -34 -13 -13 -42 -3 -42 14 0 9 3 8 10 -2 6 -9
10 -10 10 -3 0 6 -5 15 -11 18 -6 4 -8 14 -5 22 4 8 1 11 -5 8 -6 -4 -8 -13
-5 -21 3 -8 1 -14 -5 -14 -6 0 -8 -4 -5 -9 4 -5 -3 -7 -14 -4 -12 3 -20 0 -20
-6 0 -7 4 -10 9 -6 5 3 12 2 15 -3 6 -9 4 -10 -65 -16 -26 -2 -51 -6 -57 -10
-15 -9 -32 17 -22 34 13 20 12 30 0 30 -6 0 -9 -3 -8 -7 0 -5 -2 -16 -6 -25
-8 -17 -36 -14 -36 4 0 5 4 7 9 3 5 -3 12 -2 15 3 2 4 -8 9 -24 10 -16 1 -32
-2 -35 -8 -4 -6 -11 -8 -16 -4 -5 3 -15 1 -22 -4 -7 -5 -20 -8 -29 -7 -9 2
-27 -9 -40 -23 -13 -14 -18 -22 -12 -19 7 4 15 0 18 -8 6 -18 -2 -22 -63 -29
-37 -5 -41 -4 -31 9 6 8 17 13 22 12 6 -1 13 4 16 12 3 10 0 12 -12 8 -10 -4
-19 -1 -22 8 -4 8 -11 12 -16 9 -6 -4 -5 -10 3 -15 7 -4 10 -11 6 -15 -4 -4
-15 0 -24 8 -18 15 -103 14 -103 -2 0 -4 -12 -5 -27 -3 -21 3 -24 2 -13 -6 8
-5 18 -7 22 -5 4 3 8 1 8 -5 0 -19 -20 -22 -36 -7 -25 25 -58 20 -77 -13 -21
-36 -22 -47 -2 -31 12 10 15 10 15 -1 0 -7 8 -2 17 11 10 14 17 29 15 34 -2 5
5 3 14 -5 16 -13 16 -14 1 -17 -10 -2 -17 -8 -17 -13 0 -6 7 -6 18 0 10 6 29
7 41 4 16 -4 20 -2 16 9 -3 8 2 21 11 29 16 12 17 12 11 -3 -3 -10 -2 -20 3
-23 6 -4 10 -2 10 3 0 5 10 9 23 8 17 -1 22 4 21 22 0 12 3 22 8 22 4 0 8 -7
8 -15 0 -8 5 -15 10 -15 6 0 10 -5 10 -11 0 -5 -4 -7 -10 -4 -5 3 -10 2 -10
-3 0 -8 -35 -17 -145 -37 -16 -3 -58 -11 -92 -18 -35 -8 -63 -10 -63 -5 0 4 5
8 10 8 6 0 10 7 10 15 0 12 -4 13 -19 6 -10 -6 -22 -7 -27 -3 -5 4 -2 -1 5
-11 17 -22 9 -33 -9 -12 -10 12 -10 18 0 30 7 8 16 13 20 10 4 -2 16 2 26 10
18 13 17 14 -11 9 -16 -3 -32 -8 -35 -12 -3 -4 -21 -7 -42 -8 -20 -1 -44 -5
-55 -9 -10 -4 -33 -9 -51 -11 -37 -4 -54 -12 -48 -23 3 -4 -1 -8 -9 -8 -8 0
-12 4 -9 9 3 4 -2 8 -11 8 -9 0 -15 -7 -13 -16 2 -10 -4 -19 -12 -21 -12 -4
-12 -3 -1 5 22 16 -1 21 -49 11 -87 -18 -120 -18 -130 2 -14 25 -12 101 3 120
32 41 116 69 327 110 58 11 130 26 160 34 30 8 66 16 80 19 580 106 783 139
1120 181 269 34 555 62 830 81 364 25 1295 25 1705 0z m-751 -185 c3 -5 -1
-11 -9 -14 -9 -4 -12 -1 -8 9 6 16 10 17 17 5z m90 -13 c7 -22 7 -22 16 -3 7
16 9 16 9 4 1 -17 31 -36 31 -20 0 5 -5 11 -12 13 -9 3 -9 6 1 12 8 5 14 1 18
-12 3 -12 15 -23 27 -25 11 -2 -11 -3 -51 -2 -40 0 -75 4 -78 7 -8 8 12 48 24
48 5 0 12 -10 15 -22z m204 3 c10 -3 -22 -41 -34 -41 -8 0 -12 5 -9 10 4 6 12
7 18 4 8 -5 8 -3 0 7 -22 23 -14 30 25 20z m-1371 -17 c-3 -3 -12 -4 -19 -1
-8 3 -5 6 6 6 11 1 17 -2 13 -5z m827 -2 c-5 -4 -12 -11 -15 -15 -3 -5 -9 -2
-12 5 -3 9 3 14 15 15 11 1 16 -1 12 -5z m200 -10 c3 -5 -1 -9 -9 -9 -8 0 -15
4 -15 9 0 4 4 8 9 8 6 0 12 -4 15 -8z m1363 -18 c-3 -3 -12 -4 -19 -1 -8 3 -5
6 6 6 11 1 17 -2 13 -5z m-380 -18 c4 -4 -9 -6 -29 -4 -20 1 -35 5 -32 9 5 9
52 5 61 -5z m313 -27 c0 -13 -43 -4 -48 9 -2 8 3 10 15 5 16 -6 17 -5 3 13
-14 19 -14 19 8 0 12 -11 22 -23 22 -27z m-2870 13 c0 -4 -8 -8 -17 -8 -10 -1
-26 -5 -36 -9 -13 -6 -16 -4 -11 9 4 10 13 15 20 12 7 -3 16 -1 19 5 7 10 25
3 25 -9z m160 -16 c0 -6 -5 -4 -10 4 -5 8 -10 11 -10 7 0 -5 -5 -5 -10 -2 -6
4 -8 11 -4 16 7 12 34 -8 34 -25z m2800 30 c0 -2 -9 -6 -20 -9 -11 -3 -18 -1
-14 4 5 9 34 13 34 5z m183 -10 c10 3 17 1 17 -5 0 -6 7 -8 15 -5 8 4 15 2 15
-3 0 -20 -14 -22 -32 -6 -13 11 -18 12 -18 3 0 -10 -3 -10 -15 0 -8 7 -15 18
-15 24 0 7 3 6 8 -2 5 -7 16 -10 25 -6z m-348 -6 c4 -6 -5 -10 -19 -10 -14 0
-26 5 -26 10 0 6 9 10 19 10 11 0 23 -4 26 -10z m445 -12 c0 -4 -9 -8 -21 -8
-11 0 -18 4 -15 8 3 5 12 9 21 9 8 0 15 -4 15 -9z m90 -1 c0 -4 5 -5 12 -1 6
4 8 3 4 -4 -3 -6 4 -18 16 -26 12 -9 18 -19 14 -23 -5 -5 -10 -3 -12 2 -2 6
-23 9 -45 7 -25 -3 -45 1 -52 8 -9 10 -9 11 1 6 7 -4 12 -2 12 6 0 8 3 9 8 3
11 -15 39 -17 48 -4 5 8 3 9 -6 4 -9 -5 -11 -4 -6 4 4 6 4 11 -1 10 -24 -4
-74 2 -69 9 6 10 76 10 76 -1z m127 -4 c-4 -3 -2 -12 4 -20 7 -8 8 -13 1 -13
-12 0 -23 26 -15 34 4 3 9 6 11 6 3 0 2 -3 -1 -7z m-23 -20 c7 -17 -9 -33 -31
-33 -7 0 -13 5 -13 11 0 6 6 9 14 6 20 -8 28 4 15 20 -7 8 -8 13 -1 13 5 0 13
-8 16 -17z m-3784 -15 c8 2 12 2 9 -2 -4 -4 -17 -9 -29 -11 -12 -2 -20 -2 -16
2 3 3 0 13 -6 22 -11 14 -10 14 7 0 11 -9 27 -14 35 -11z m-95 2 c4 -6 11 -8
16 -5 5 3 6 -1 3 -10 -4 -9 -13 -14 -21 -10 -11 3 -13 1 -9 -10 3 -8 1 -15 -4
-15 -9 0 -14 15 -11 33 1 5 -3 6 -9 2 -6 -3 -8 -10 -5 -15 3 -5 -4 -12 -16
-15 -15 -5 -28 -1 -41 12 -13 13 -15 20 -6 21 36 3 69 9 75 15 9 10 21 9 28
-3z m236 -13 c-10 -9 -11 -8 -5 6 3 10 9 15 12 12 3 -3 0 -11 -7 -18z m3794
13 c3 -5 2 -10 -4 -10 -5 0 -13 5 -16 10 -3 6 -2 10 4 10 5 0 13 -4 16 -10z
m-3994 -23 c-10 -9 -11 -8 -5 6 3 10 9 15 12 12 3 -3 0 -11 -7 -18z m3921 7
c-12 -8 -32 -13 -45 -11 -19 4 -18 4 5 6 15 0 30 6 33 11 3 6 11 10 18 10 6 0
1 -7 -11 -16z m42 -9 c-4 -8 -13 -15 -22 -15 -13 0 -12 3 4 15 24 18 25 18 18
0z m80 -12 c9 4 16 2 16 -2 0 -5 17 -8 38 -7 40 3 55 -1 47 -13 -2 -5 -28 -4
-57 1 -29 5 -65 9 -80 9 -15 0 -31 5 -34 11 -4 6 1 8 15 3 14 -4 21 -2 21 7 0
10 2 10 9 -1 5 -8 16 -11 25 -8z m-4469 -38 c-2 -20 1 -23 11 -14 9 8 18 7 31
-1 16 -10 16 -11 1 -6 -10 3 -20 1 -23 -4 -11 -18 -35 -10 -35 11 0 11 -4 18
-9 14 -6 -3 -8 -15 -6 -26 4 -18 2 -19 -12 -7 -12 9 -15 9 -9 1 9 -17 -16 -17
-32 -1 -9 9 -12 8 -13 -7 0 -18 -1 -18 -11 3 -13 26 -4 40 15 23 11 -8 18 -6
32 9 10 11 21 18 24 15 4 -2 13 0 21 6 8 5 16 9 17 9 1 0 0 -11 -2 -25z m4794
-19 c-3 -3 -16 -2 -29 1 -22 6 -22 7 -4 14 18 6 43 -5 33 -15z m-5406 -113
c-4 -10 -2 -14 5 -9 6 3 13 2 17 -4 3 -5 -3 -10 -13 -10 -33 0 -36 28 -5 39 1
1 -1 -6 -4 -16z m-41 -12 c-4 -10 -1 -12 9 -6 8 5 11 4 6 0 -13 -15 -39 -15
-33 0 3 9 0 12 -8 9 -8 -3 -17 -1 -20 4 -3 5 7 9 23 8 20 0 27 -5 23 -15z
m-87 -11 c-3 -5 -14 -10 -23 -10 -15 0 -15 2 -2 10 20 13 33 13 25 0z m22 -15
c-4 -8 -16 -15 -28 -15 -21 0 -21 0 2 19 26 21 35 20 26 -4z m-67 -20 c0 -5
-5 -3 -10 5 -5 8 -10 20 -10 25 0 6 5 3 10 -5 5 -8 10 -19 10 -25z m100 25 c0
-5 -5 -10 -11 -10 -5 0 -7 5 -4 10 3 6 8 10 11 10 2 0 4 -4 4 -10z m-230 -31
c0 -6 5 -7 10 -4 6 4 8 11 5 16 -4 5 -1 9 4 9 13 0 14 -10 3 -25 -10 -15 -50
-16 -58 -3 -5 7 -2 8 7 3 11 -6 12 -5 2 6 -20 20 -15 31 7 19 11 -6 20 -15 20
-21z m76 10 c4 -8 9 -7 15 2 7 11 9 10 9 -3 0 -20 -15 -24 -25 -8 -3 6 -11 10
-16 10 -6 0 -8 -4 -4 -9 3 -5 0 -13 -6 -16 -14 -10 -21 -1 -13 19 7 18 30 21
40 5z"/>
<path d="M6354 8155 c3 -23 12 -26 13 -5 1 11 -2 20 -7 20 -4 0 -7 -7 -6 -15z"/>
<path d="M6547 7189 c7 -7 15 -10 18 -7 3 3 -2 9 -12 12 -14 6 -15 5 -6 -5z"/>
<path d="M3170 8630 c-8 -5 -12 -12 -9 -15 4 -3 12 1 19 10 14 17 11 19 -10 5z"/>
<path d="M3277 8402 c-3 -4 5 -19 18 -34 15 -18 26 -23 36 -17 13 8 6 13 -14
10 -4 -1 -12 10 -17 24 -10 26 -16 30 -23 17z"/>
<path d="M2850 7606 c0 -2 8 -10 18 -17 15 -13 16 -12 3 4 -13 16 -21 21 -21
13z"/>
<path d="M2971 7404 c0 -11 3 -14 6 -6 3 7 2 16 -1 19 -3 4 -6 -2 -5 -13z"/>
<path d="M3405 7100 c-3 -6 1 -7 9 -4 18 7 21 14 7 14 -6 0 -13 -4 -16 -10z"/>
<path d="M3458 7073 c7 -3 16 -2 19 1 4 3 -2 6 -13 5 -11 0 -14 -3 -6 -6z"/>
<path d="M5960 7180 c14 -4 34 -8 45 -8 16 0 15 2 -5 8 -14 4 -34 8 -45 8 -16
0 -15 -2 5 -8z"/>
<path d="M5691 7018 c-19 -7 -49 -27 -68 -45 -29 -29 -33 -40 -33 -84 0 -43 5
-55 29 -80 36 -36 63 -36 133 -4 93 43 219 30 361 -39 37 -17 67 -27 67 -22 0
26 -62 116 -114 164 -77 73 -167 113 -266 118 -41 2 -90 -2 -109 -8z"/>
<path d="M6316 6815 c-3 -9 -2 -13 4 -10 9 6 14 -8 11 -28 -1 -5 3 -6 9 -2 7
4 6 13 -1 28 -16 30 -16 30 -23 12z"/>
<path d="M6365 6735 c9 -22 21 -44 26 -50 6 -5 3 8 -6 30 -9 22 -21 45 -26 50
-6 6 -3 -8 6 -30z"/>
<path d="M5726 6668 c5 -8 2 -9 -10 -5 -27 10 -84 -19 -127 -65 -37 -38 -47
-64 -24 -56 6 2 9 6 8 10 -1 3 4 9 12 12 8 3 15 1 15 -4 0 -5 7 -7 15 -4 8 4
15 12 15 20 0 9 -6 11 -17 7 -17 -6 -17 -6 -1 10 19 19 33 23 22 5 -5 -8 -2
-9 9 -5 10 3 17 2 17 -2 0 -5 -6 -12 -12 -14 -8 -3 -6 -6 5 -6 10 -1 17 6 17
16 0 13 3 14 12 5 16 -16 48 4 48 31 0 22 0 22 -13 -2 -13 -25 -29 -30 -36
-10 -2 7 1 9 8 4 8 -4 14 0 17 13 9 34 85 47 158 27 21 -6 21 -6 2 9 -24 20
-152 23 -140 4z m-52 -52 c-3 -9 -10 -13 -16 -10 -5 3 -4 12 3 20 15 18 22 13
13 -10z"/>
<path d="M5743 6608 c3 -10 3 -17 -1 -16 -4 1 -25 -7 -47 -18 -55 -26 -115
-90 -144 -152 -14 -29 -28 -52 -33 -52 -5 0 -7 -3 -4 -8 2 -4 -2 -34 -10 -67
-27 -116 -13 -264 38 -394 20 -51 27 -60 53 -64 17 -3 48 -10 70 -16 133 -35
255 11 313 119 25 47 30 74 8 45 -14 -19 -16 -19 -50 -2 -20 9 -36 23 -36 30
0 39 69 51 94 16 14 -20 15 -19 21 25 15 100 -30 240 -97 302 -46 44 -119 84
-154 85 -29 1 -28 1 11 20 55 26 110 24 175 -7 140 -65 230 -221 230 -399 0
-129 -37 -206 -134 -277 -44 -33 -36 -32 59 3 100 38 162 145 172 299 13 222
-111 437 -295 509 -56 22 -212 35 -212 18 0 -5 -8 -3 -17 4 -15 12 -16 12 -10
-3z m93 -232 c62 -52 14 -156 -72 -156 -41 0 -94 45 -94 80 0 28 26 77 47 89
33 19 90 13 119 -13z"/>
<path d="M5571 6523 c-12 -16 -18 -20 -15 -10 4 11 1 17 -7 17 -8 0 -15 -12
-15 -28 -1 -15 1 -21 3 -14 7 19 23 4 17 -16 -5 -14 -3 -14 10 2 8 10 13 22
11 27 -3 4 4 10 15 14 21 7 26 20 11 29 -5 4 -19 -6 -30 -21z"/>
<path d="M6406 6487 c3 -10 9 -15 12 -12 3 3 0 11 -7 18 -10 9 -11 8 -5 -6z"/>
<path d="M5520 6423 c0 -10 4 -14 8 -8 4 6 11 13 16 18 5 4 2 7 -7 7 -10 0
-17 -8 -17 -17z"/>
<path d="M6517 5999 c7 -7 15 -10 18 -7 3 3 -2 9 -12 12 -14 6 -15 5 -6 -5z"/>
<path d="M4075 7125 c-40 -14 -40 -14 -6 -10 18 2 38 8 44 14 13 13 13 13 -38
-4z"/>
<path d="M4176 6975 c-141 -58 -233 -151 -286 -290 -9 -22 -5 -21 51 15 78 50
154 79 249 92 69 10 79 9 124 -10 83 -37 134 -26 157 35 14 39 11 73 -13 111
-45 73 -169 94 -282 47z"/>
<path d="M3750 6755 c0 -16 -6 -25 -16 -25 -13 0 -14 -3 -5 -13 6 -8 9 -17 6
-20 -3 -4 -2 -4 3 -1 4 3 7 9 8 12 0 4 4 15 7 25 15 37 16 47 7 47 -6 0 -10
-11 -10 -25z"/>
<path d="M4257 6627 c3 -4 8 -6 11 -3 3 3 11 1 19 -5 7 -6 13 -8 13 -5 0 4 9
2 20 -4 11 -6 20 -7 20 -2 0 5 7 9 15 9 18 0 19 -9 3 -26 -11 -10 -10 -12 2
-9 8 2 14 -3 12 -10 -1 -8 2 -11 8 -7 8 5 8 11 1 19 -22 27 14 35 45 10 10 -8
13 -12 5 -8 -10 5 -12 3 -6 -5 4 -7 18 -11 31 -8 18 3 22 1 14 -8 -8 -9 -6
-14 5 -19 11 -4 14 -2 9 6 -5 7 -3 8 5 4 7 -5 10 -14 7 -22 -3 -8 0 -11 9 -8
13 5 12 10 0 35 -16 30 -48 53 -59 42 -3 -3 -6 -1 -6 5 0 6 -15 15 -32 21 -38
12 -159 11 -151 -2z"/>
<path d="M4231 6614 c0 -11 3 -14 6 -6 3 7 2 16 -1 19 -3 4 -6 -2 -5 -13z"/>
<path d="M4400 6580 c6 -11 12 -20 14 -20 2 0 2 9 -1 20 -3 11 -9 20 -15 20
-5 0 -4 -9 2 -20z"/>
<path d="M4167 6569 c-148 -36 -288 -188 -326 -354 -14 -61 -18 -155 -9 -212
14 -89 103 -228 169 -263 21 -12 108 -40 123 -40 5 0 -15 18 -46 39 -104 75
-138 155 -135 311 2 89 7 114 29 163 35 74 88 148 101 140 6 -3 7 -1 4 4 -7
11 39 46 60 46 7 0 13 4 13 8 0 25 124 37 174 16 l28 -12 -38 -14 c-147 -51
-213 -153 -214 -327 0 -103 12 -143 62 -200 78 -89 214 -117 339 -70 64 23 64
24 86 84 29 79 46 212 38 287 -8 78 -25 145 -41 169 -10 15 -11 23 -2 33 8 11
7 12 -6 7 -9 -4 -16 -1 -16 6 0 7 -12 21 -26 32 -16 13 -24 27 -21 39 3 10 2
18 -2 17 -22 -2 -32 4 -27 18 3 8 2 12 -3 9 -6 -3 -26 4 -47 15 -93 53 -184
70 -267 49z m232 -203 c31 -16 51 -54 51 -94 0 -94 -141 -118 -185 -31 -14 27
-15 39 -6 70 19 64 78 87 140 55z m-185 -368 c23 -37 -35 -76 -70 -48 -18 16
-18 35 2 55 20 20 53 16 68 -7z"/>
<path d="M4533 6519 c-2 -23 3 -25 10 -4 4 8 3 16 -1 19 -4 3 -9 -4 -9 -15z"/>
<path d="M3203 5518 c-13 -6 -23 -15 -23 -20 0 -13 10 -10 37 12 28 22 21 25
-14 8z"/>
<path d="M3260 5299 c0 -5 5 -7 10 -4 6 3 10 8 10 11 0 2 -4 4 -10 4 -5 0 -10
-5 -10 -11z"/>
<path d="M3220 5230 c0 -5 5 -10 11 -10 5 0 7 5 4 10 -3 6 -8 10 -11 10 -2 0
-4 -4 -4 -10z"/>
<path d="M3244 5176 c-10 -8 -15 -18 -11 -22 4 -4 15 0 24 9 22 21 12 31 -13
13z"/>
<path d="M5038 5903 c6 -2 18 -2 25 0 6 3 1 5 -13 5 -14 0 -19 -2 -12 -5z"/>
<path d="M2420 3956 c0 -2 8 -10 18 -17 15 -13 16 -12 3 4 -13 16 -21 21 -21
13z"/>
<path d="M4105 3683 c-27 -8 -62 -24 -76 -34 -15 -10 -32 -19 -38 -19 -7 0 -1
-19 13 -42 33 -58 60 -204 51 -283 -15 -138 -59 -248 -131 -325 -25 -27 -41
-50 -34 -50 6 0 30 -16 53 -35 158 -135 411 -136 563 -3 51 45 110 138 129
205 72 247 -63 519 -293 588 -60 19 -173 18 -237 -2z"/>
<path d="M3360 3605 c-8 -2 -47 -8 -87 -15 -70 -11 -72 -12 -68 -38 2 -15 7
-56 9 -92 9 -108 38 -394 42 -408 4 -13 24 -12 154 10 182 30 283 132 282 285
0 61 -4 80 -29 125 -57 102 -182 156 -303 133z"/>
<path d="M8259 3616 c-2 -2 -22 -6 -45 -9 -23 -3 -68 -18 -100 -32 -181 -80
-287 -252 -286 -465 1 -132 30 -229 97 -320 106 -144 302 -213 482 -169 152
37 286 164 340 323 89 259 -62 576 -311 652 -48 14 -168 28 -177 20z"/>
<path d="M1920 3285 c0 -26 -17 -148 -34 -250 -22 -134 -56 -388 -51 -393 3
-3 53 7 113 22 145 36 227 58 229 60 1 1 -37 92 -85 202 -48 109 -103 237
-122 284 -40 100 -50 115 -50 75z"/>
<path d="M5143 2102 c-17 -5 -20 -11 -13 -22 8 -12 10 -12 10 -1 0 11 3 11 15
1 9 -7 18 -10 22 -6 3 3 1 6 -5 6 -6 0 -9 7 -6 15 4 8 5 15 3 14 -2 -1 -14 -4
-26 -7z"/>
<path d="M4895 2092 c-5 -4 -11 -15 -11 -24 -1 -14 2 -16 18 -7 16 8 23 8 30
-2 8 -11 9 -10 5 2 -3 9 0 22 6 28 8 8 8 11 -2 11 -8 0 -20 -8 -27 -17 -13
-17 -14 -17 -8 0 7 19 4 21 -11 9z"/>
<path d="M6006 2091 c-6 -9 6 -25 21 -28 7 -2 10 4 6 13 -5 14 -3 15 15 5 15
-8 22 -8 26 2 5 9 7 9 12 0 8 -18 25 -16 18 1 -6 15 -90 21 -98 7z"/>
<path d="M6125 2083 c11 -7 21 -9 23 -4 2 5 15 7 28 5 15 -3 23 -1 20 5 -4 5
-25 9 -48 9 -39 0 -40 -2 -23 -15z"/>
<path d="M4675 2080 c4 -7 -5 -9 -27 -5 -24 4 -29 3 -18 -5 13 -9 13 -10 0
-10 -13 0 -13 -1 0 -10 9 -6 18 -6 24 0 6 6 16 4 28 -7 11 -10 18 -12 18 -4 0
8 5 9 19 1 21 -11 24 2 7 29 -7 11 -5 13 7 8 9 -3 19 -3 21 2 7 11 -27 10 -41
-2 -9 -6 -13 -6 -13 2 0 6 -7 11 -16 11 -8 0 -12 -5 -9 -10z m25 -20 c0 -5 -4
-10 -10 -10 -5 0 -10 5 -10 10 0 6 5 10 10 10 6 0 10 -4 10 -10z m25 0 c3 -5
1 -10 -4 -10 -6 0 -11 5 -11 10 0 6 2 10 4 10 3 0 8 -4 11 -10z"/>
<path d="M6217 2083 c7 -2 9 -11 6 -19 -3 -8 0 -14 7 -14 6 0 8 5 5 10 -3 6
-1 10 4 10 22 0 10 16 -11 17 -13 0 -18 -1 -11 -4z"/>
<path d="M6310 2080 c0 -6 7 -10 15 -10 8 0 15 2 15 4 0 2 -7 6 -15 10 -8 3
-15 1 -15 -4z"/>
<path d="M6423 2073 c9 -2 14 -9 11 -15 -5 -7 1 -9 15 -5 17 4 21 2 17 -9 -7
-19 18 -18 34 2 8 8 9 14 4 13 -23 -4 -35 2 -28 14 5 8 2 8 -9 -2 -11 -9 -17
-10 -17 -2 0 6 -10 10 -22 10 -18 -1 -19 -2 -5 -6z"/>
<path d="M4393 2063 c9 -3 17 -8 17 -13 0 -4 8 -11 17 -14 10 -4 14 -4 10 0
-4 4 -3 12 3 19 7 8 -1 11 -28 11 -20 1 -29 -1 -19 -3z"/>
<path d="M6258 2051 c-10 -13 -10 -14 1 -4 7 6 20 9 27 6 8 -3 14 -1 14 4 0
15 -29 11 -42 -6z"/>
<path d="M6347 2056 c-14 -11 -15 -15 -3 -19 8 -3 16 2 19 14 3 10 4 19 4 19
-1 0 -10 -7 -20 -14z"/>
<path d="M6520 2059 c0 -5 5 -7 10 -4 6 3 10 8 10 11 0 2 -4 4 -10 4 -5 0 -10
-5 -10 -11z"/>
<path d="M6690 2060 c-13 -8 -12 -10 3 -10 9 0 17 5 17 10 0 12 -1 12 -20 0z"/>
<path d="M6128 2053 c7 -3 16 -2 19 1 4 3 -2 6 -13 5 -11 0 -14 -3 -6 -6z"/>
<path d="M6192 2051 c-11 -7 -11 -9 0 -14 9 -3 15 1 15 9 0 8 -1 14 -1 14 -1
0 -7 -4 -14 -9z"/>
<path d="M6374 2048 c-5 -7 -1 -9 9 -5 10 3 17 3 17 -2 0 -4 6 -8 14 -8 8 0
12 5 10 12 -6 14 -42 17 -50 3z"/>
<path d="M4290 2039 c0 -5 5 -7 10 -4 6 3 10 8 10 11 0 2 -4 4 -10 4 -5 0 -10
-5 -10 -11z"/>
<path d="M4380 2024 c0 -8 5 -12 10 -9 6 4 8 11 5 16 -9 14 -15 11 -15 -7z"/>
<path d="M4265 2020 c-3 -5 -1 -10 4 -10 6 0 11 5 11 10 0 6 -2 10 -4 10 -3 0
-8 -4 -11 -10z"/>
<path d="M4290 2009 c0 -5 5 -7 10 -4 6 3 10 8 10 11 0 2 -4 4 -10 4 -5 0 -10
-5 -10 -11z"/>
<path d="M3820 2000 c0 -5 -8 -7 -17 -4 -14 4 -13 2 2 -7 11 -7 24 -17 28 -23
6 -7 7 -5 4 6 -6 18 19 33 28 18 9 -14 22 -12 22 3 0 6 -15 13 -34 14 -18 2
-33 -1 -33 -7z"/>
<path d="M7045 2000 c-3 -5 -1 -10 4 -10 6 0 11 5 11 10 0 6 -2 10 -4 10 -3 0
-8 -4 -11 -10z"/>
<path d="M3760 1989 c0 -5 5 -7 10 -4 6 3 10 8 10 11 0 2 -4 4 -10 4 -5 0 -10
-5 -10 -11z"/>
<path d="M7630 1954 c0 -13 3 -14 13 -5 8 6 17 8 20 4 4 -3 7 -1 7 5 0 7 -9
12 -20 12 -12 0 -20 -7 -20 -16z"/>
<path d="M7719 1951 c11 -7 11 -9 0 -13 -10 -3 -10 -6 -1 -12 7 -4 12 -2 12 3
0 6 7 11 15 11 27 0 16 16 -12 18 -19 1 -24 -1 -14 -7z"/>
<path d="M7775 1940 c3 -5 8 -10 11 -10 2 0 4 5 4 10 0 6 -5 10 -11 10 -5 0
-7 -4 -4 -10z"/>
<path d="M3371 1934 c-1 -6 -14 -17 -30 -24 -23 -9 -27 -15 -19 -24 9 -9 17
-6 35 12 13 13 22 29 19 35 -3 9 -5 9 -5 1z"/>
<path d="M3265 1910 c3 -5 2 -10 -3 -10 -5 0 -9 -7 -9 -16 0 -14 2 -14 14 2
16 22 17 34 2 34 -5 0 -7 -4 -4 -10z"/>
<path d="M7987 1913 c-4 -3 -7 -13 -7 -22 1 -13 3 -13 11 2 11 19 8 33 -4 20z"/>
<path d="M8070 1906 c0 -2 9 -6 20 -9 11 -3 20 -1 20 4 0 5 -9 9 -20 9 -11 0
-20 -2 -20 -4z"/>
<path d="M3005 1863 c2 -10 4 -24 4 -30 2 -27 16 -11 16 17 0 17 -5 30 -12 30
-6 0 -10 -8 -8 -17z"/>
<path d="M2665 1810 c-3 -5 -3 -15 1 -22 4 -7 3 -8 -4 -4 -8 5 -12 0 -12 -13
0 -30 12 -25 37 14 21 33 21 35 3 35 -10 0 -22 -4 -25 -10z"/>
<path d="M5696 2074 c-3 -9 -4 -19 -1 -22 3 -3 5 1 5 9 0 11 2 11 10 -1 5 -8
10 -10 10 -5 0 6 -4 16 -9 23 -6 11 -10 10 -15 -4z"/>
<path d="M3540 1946 c0 -2 7 -7 16 -10 8 -3 12 -2 9 4 -6 10 -25 14 -25 6z"/>
<path d="M3500 1930 c0 -5 -7 -6 -17 -3 -11 4 -14 3 -9 -5 10 -17 33 -15 40 3
3 8 1 15 -4 15 -6 0 -10 -4 -10 -10z"/>
</g>
</svg>
